<svg width="50" height="50" viewBox="0 0 50 50" fill="none" xmlns="http://www.w3.org/2000/svg">
<circle cx="25" cy="25" r="24.5" fill="white" stroke="#735BC0"/>
<path d="M12.8385 16.6637C8.53422 23.0261 4.44482 25.8339 4.44482 25.8339C4.44482 25.8339 8.53422 28.6406 12.8385 35.004C17.1428 41.3671 25.321 37.9985 25.321 37.9985V25.8339V13.6696C25.321 13.6696 17.1428 10.3003 12.8385 16.6637Z" fill="white"/>
<path d="M12.8385 16.6637C8.53422 23.0261 4.44482 25.8339 4.44482 25.8339C4.44482 25.8339 8.53422 28.6406 12.8385 35.004C17.1428 41.3671 25.321 37.9985 25.321 37.9985V25.8339V13.6696C25.321 13.6696 17.1428 10.3003 12.8385 16.6637Z" stroke="#735BC0" stroke-width="1.33333" stroke-miterlimit="10" stroke-linecap="round" stroke-linejoin="round"/>
<path d="M37.8049 35.004C42.1097 28.6406 46.1985 25.8339 46.1985 25.8339C46.1985 25.8339 42.1097 23.0261 37.8049 16.6637C33.5005 10.3003 25.3228 13.6696 25.3228 13.6696L25.3223 25.8339V37.9985C25.3223 37.9985 33.5005 41.3671 37.8049 35.004Z" fill="white"/>
<path d="M37.8049 35.004C42.1097 28.6406 46.1985 25.8339 46.1985 25.8339C46.1985 25.8339 42.1097 23.0261 37.8049 16.6637C33.5005 10.3003 25.3228 13.6696 25.3228 13.6696L25.3223 25.8339V37.9985C25.3223 37.9985 33.5005 41.3671 37.8049 35.004Z" stroke="#735BC0" stroke-width="1.33333" stroke-miterlimit="10" stroke-linecap="round" stroke-linejoin="round"/>
<path d="M15.4146 18.5556C11.9983 23.6056 8.75293 25.8335 8.75293 25.8335C8.75293 25.8335 11.9983 28.0618 15.4146 33.1118C18.8309 38.1622 25.3216 35.488 25.3216 35.488V25.8335V16.1787C25.3216 16.1787 18.8309 13.5052 15.4146 18.5556Z" fill="white"/>
<path d="M15.4146 18.5556C11.9983 23.6056 8.75293 25.8335 8.75293 25.8335C8.75293 25.8335 11.9983 28.0618 15.4146 33.1118C18.8309 38.1622 25.3216 35.488 25.3216 35.488V25.8335V16.1787C25.3216 16.1787 18.8309 13.5052 15.4146 18.5556Z" stroke="#735BC0" stroke-width="1.33333" stroke-miterlimit="10" stroke-linecap="round" stroke-linejoin="round"/>
<path d="M35.2298 33.1118C38.6463 28.0618 41.8916 25.8335 41.8916 25.8335C41.8916 25.8335 38.6463 23.6056 35.2298 18.5556C31.8135 13.5052 25.3228 16.1787 25.3228 16.1787L25.3223 25.8335V35.488C25.3223 35.488 31.8135 38.1622 35.2298 33.1118Z" fill="white"/>
<path d="M35.2298 33.1118C38.6463 28.0618 41.8916 25.8335 41.8916 25.8335C41.8916 25.8335 38.6463 23.6056 35.2298 18.5556C31.8135 13.5052 25.3228 16.1787 25.3228 16.1787L25.3223 25.8335V35.488C25.3223 35.488 31.8135 38.1622 35.2298 33.1118Z" stroke="#735BC0" stroke-width="1.33333" stroke-miterlimit="10" stroke-linecap="round" stroke-linejoin="round"/>
<path d="M37.7377 25.6873C37.7377 32.5447 32.1788 38.1035 25.3216 38.1035C18.4648 38.1035 12.906 32.5447 12.906 25.6873C12.906 18.8302 18.4648 13.2715 25.3216 13.2715C32.1788 13.2715 37.7377 18.8302 37.7377 25.6873Z" fill="white"/>
<path d="M37.7377 25.6873C37.7377 32.5447 32.1788 38.1035 25.3216 38.1035C18.4648 38.1035 12.906 32.5447 12.906 25.6873C12.906 18.8302 18.4648 13.2715 25.3216 13.2715C32.1788 13.2715 37.7377 18.8302 37.7377 25.6873Z" stroke="#735BC0" stroke-width="1.33333" stroke-miterlimit="10" stroke-linecap="round" stroke-linejoin="round"/>
<path d="M29.9701 31.0873C29.9685 30.6758 29.8811 30.2493 29.7171 29.8555C29.402 29.0425 28.7086 28.4499 27.9862 28.0929C27.6191 27.9108 27.2461 27.7742 26.863 27.674C27.4021 27.2665 27.8174 26.697 27.9873 26.0216C28.1255 25.4815 28.0532 24.8732 27.7745 24.3856C27.498 23.8926 27.0516 23.5469 26.5875 23.311C25.6567 22.8738 24.5383 22.7629 23.5951 23.1808C22.6605 23.5829 21.9258 24.3104 21.4376 25.1482C22.0373 24.3916 22.8116 23.7553 23.7034 23.4747C24.5946 23.1981 25.5489 23.3401 26.348 23.772C26.7317 23.9988 27.0607 24.2984 27.2381 24.6675C27.4203 25.0346 27.4358 25.4564 27.3249 25.8503C27.1014 26.6526 26.3662 27.2779 25.5511 27.4869C25.3994 27.526 25.2799 27.6566 25.2644 27.8223C25.2441 28.0327 25.3989 28.2204 25.61 28.2408L25.6309 28.2425C26.9809 28.3711 28.491 28.9593 28.991 30.1624C29.1164 30.4574 29.1904 30.7804 29.193 31.1157C29.2166 31.4651 29.1775 31.7574 29.0553 32.0476C28.8217 32.6328 28.2724 33.0991 27.6673 33.4362C26.4332 34.0965 24.9102 34.3467 23.5056 34.0541C22.81 33.8988 22.1241 33.6105 21.6107 33.0998C21.0834 32.6015 20.787 31.8886 20.667 31.1495C20.6793 31.8957 20.9071 32.6779 21.4258 33.2708C21.9269 33.8724 22.6455 34.2826 23.3979 34.484C24.9086 34.8815 26.55 34.7475 27.9894 34.0514C28.6909 33.685 29.3892 33.1629 29.7552 32.3526C29.9401 31.9561 29.9947 31.4868 29.9701 31.0873Z" fill="#735BC0"/>
<path d="M21.3361 17.7754C21.6211 18.6896 22.0852 19.5267 22.7648 20.0658C23.4373 20.6049 24.2995 20.8246 25.1746 20.7769C26.0471 20.7679 26.8761 20.4626 27.5803 19.9201C28.2742 19.3653 28.8541 18.6218 29.3107 17.7754C29.1686 18.733 28.7099 19.6586 27.9961 20.3874C27.6392 20.7555 27.1923 21.0327 26.7212 21.2565C26.2352 21.4409 25.7186 21.5739 25.2009 21.5775C24.6848 21.5962 24.1661 21.5231 23.6645 21.3638C23.1677 21.1864 22.7031 20.9015 22.3414 20.524C21.6056 19.7688 21.2937 18.7357 21.3361 17.7754Z" fill="#735BC0"/>
<path d="M25.9241 17.7752C25.9241 18.2238 25.5608 18.5872 25.1122 18.5872C24.6632 18.5872 24.2998 18.2238 24.2998 17.7752C24.2998 17.3266 24.6632 16.9629 25.1122 16.9629C25.5608 16.9629 25.9241 17.3266 25.9241 17.7752Z" fill="#735BC0"/>
</svg>
