<svg width="50" height="50" viewBox="0 0 50 50" fill="none" xmlns="http://www.w3.org/2000/svg">
<circle cx="25" cy="25" r="24.5" fill="white" stroke="#76C92B"/>
<path d="M28.0681 7.22096C25.9629 5.79672 25.0344 4.44434 25.0344 4.44434C25.0344 4.44434 24.106 5.79672 22.0007 7.22096C19.8959 8.6448 21.0104 11.3508 21.0104 11.3508H25.0344H29.0593C29.0593 11.3508 30.1733 8.6448 28.0681 7.22096Z" fill="white"/>
<path d="M28.0681 7.22096C25.9629 5.79672 25.0344 4.44434 25.0344 4.44434C25.0344 4.44434 24.106 5.79672 22.0007 7.22096C19.8959 8.6448 21.0104 11.3508 21.0104 11.3508H25.0344H29.0593C29.0593 11.3508 30.1733 8.6448 28.0681 7.22096Z" stroke="#76C92B" stroke-width="1.30512" stroke-miterlimit="10" stroke-linecap="round" stroke-linejoin="round"/>
<path d="M26.0525 8.18021C26.0525 8.74264 25.5967 9.19889 25.0338 9.19889C24.4714 9.19889 24.0151 8.74264 24.0151 8.18021C24.0151 7.61778 24.4714 7.16113 25.0338 7.16113C25.5967 7.16113 26.0525 7.61778 26.0525 8.18021Z" fill="white"/>
<path d="M26.0525 8.18021C26.0525 8.74264 25.5967 9.19889 25.0338 9.19889C24.4714 9.19889 24.0151 8.74264 24.0151 8.18021C24.0151 7.61778 24.4714 7.16113 25.0338 7.16113C25.5967 7.16113 26.0525 7.61778 26.0525 8.18021Z" stroke="#76C92B" stroke-width="1.30512" stroke-miterlimit="10" stroke-linecap="round" stroke-linejoin="round"/>
<path d="M38.1715 12.5204C37.3173 10.1265 37.37 8.48633 37.37 8.48633C37.37 8.48633 35.8208 9.02721 33.2805 8.92901C30.7409 8.83042 30.0376 11.6709 30.0376 11.6709L33.2813 14.0528L36.5257 16.435C36.5257 16.435 39.0249 14.9142 38.1715 12.5204Z" fill="white"/>
<path d="M38.1715 12.5204C37.3173 10.1265 37.37 8.48633 37.37 8.48633C37.37 8.48633 35.8208 9.02721 33.2805 8.92901C30.7409 8.83042 30.0376 11.6709 30.0376 11.6709L33.2813 14.0528L36.5257 16.435C36.5257 16.435 39.0249 14.9142 38.1715 12.5204Z" stroke="#76C92B" stroke-width="1.30512" stroke-miterlimit="10" stroke-linecap="round" stroke-linejoin="round"/>
<path d="M35.9796 12.1003C35.6467 12.5538 35.0092 12.6516 34.5553 12.3187C34.1015 11.9858 34.0037 11.3483 34.337 10.8948C34.6703 10.4406 35.3082 10.3432 35.7612 10.6765C36.2147 11.0094 36.3125 11.6473 35.9796 12.1003Z" fill="white"/>
<path d="M35.9796 12.1003C35.6467 12.5538 35.0092 12.6516 34.5553 12.3187C34.1015 11.9858 34.0037 11.3483 34.337 10.8948C34.6703 10.4406 35.3082 10.3432 35.7612 10.6765C36.2147 11.0094 36.3125 11.6473 35.9796 12.1003Z" stroke="#76C92B" stroke-width="1.30512" stroke-miterlimit="10" stroke-linecap="round" stroke-linejoin="round"/>
<path d="M43.1755 22.7713C43.9044 20.3359 44.9175 19.0458 44.9175 19.0458C44.9175 19.0458 43.3484 18.5636 41.3597 16.9821C39.371 15.399 37.1233 17.2727 37.1233 17.2727L38.3272 21.1119L39.5315 24.952C39.5315 24.952 42.4466 25.2066 43.1755 22.7713Z" fill="white"/>
<path d="M43.1755 22.7713C43.9044 20.3359 44.9175 19.0458 44.9175 19.0458C44.9175 19.0458 43.3484 18.5636 41.3597 16.9821C39.371 15.399 37.1233 17.2727 37.1233 17.2727L38.3272 21.1119L39.5315 24.952C39.5315 24.952 42.4466 25.2066 43.1755 22.7713Z" stroke="#76C92B" stroke-width="1.30512" stroke-miterlimit="10" stroke-linecap="round" stroke-linejoin="round"/>
<path d="M41.6573 21.1356C41.1204 21.3044 40.5488 21.0054 40.3804 20.4681C40.2123 19.9313 40.5105 19.3596 41.0478 19.1916C41.5846 19.0231 42.1555 19.3213 42.3243 19.8586C42.4928 20.3955 42.1942 20.9671 41.6573 21.1356Z" fill="white"/>
<path d="M41.6573 21.1356C41.1204 21.3044 40.5488 21.0054 40.3804 20.4681C40.2123 19.9313 40.5105 19.3596 41.0478 19.1916C41.5846 19.0231 42.1555 19.3213 42.3243 19.8586C42.4928 20.3955 42.1942 20.9671 41.6573 21.1356Z" stroke="#76C92B" stroke-width="1.30512" stroke-miterlimit="10" stroke-linecap="round" stroke-linejoin="round"/>
<path d="M41.1425 33.9958C43.1715 32.4646 44.7514 32.0239 44.7514 32.0239C44.7514 32.0239 43.7722 30.707 43.1056 28.2541C42.4402 25.8012 39.5186 25.9805 39.5186 25.9805L38.217 29.7885L36.9141 33.5966C36.9141 33.5966 39.1139 35.5266 41.1425 33.9958Z" fill="white"/>
<path d="M41.1425 33.9958C43.1715 32.4646 44.7514 32.0239 44.7514 32.0239C44.7514 32.0239 43.7722 30.707 43.1056 28.2541C42.4402 25.8012 39.5186 25.9805 39.5186 25.9805L38.217 29.7885L36.9141 33.5966C36.9141 33.5966 39.1139 35.5266 41.1425 33.9958Z" stroke="#76C92B" stroke-width="1.30512" stroke-miterlimit="10" stroke-linecap="round" stroke-linejoin="round"/>
<path d="M40.8878 31.7792C40.3549 31.5967 40.0711 31.0175 40.2531 30.4854C40.4347 29.9533 41.0139 29.6691 41.5472 29.8507C42.0793 30.0336 42.3635 30.6124 42.1807 31.1449C41.9991 31.6769 41.4199 31.9612 40.8878 31.7792Z" fill="white"/>
<path d="M40.8878 31.7792C40.3549 31.5967 40.0711 31.0175 40.2531 30.4854C40.4347 29.9533 41.0139 29.6691 41.5472 29.8507C42.0793 30.0336 42.3635 30.6124 42.1807 31.1449C41.9991 31.6769 41.4199 31.9612 40.8878 31.7792Z" stroke="#76C92B" stroke-width="1.30512" stroke-miterlimit="10" stroke-linecap="round" stroke-linejoin="round"/>
<path d="M32.8579 41.839C35.3994 41.8054 36.9346 42.3858 36.9346 42.3858C36.9346 42.3858 36.9238 40.7452 37.8387 38.3738C38.7536 36.0027 36.2939 34.418 36.2939 34.418L32.99 36.7164L29.686 39.0144C29.686 39.0144 30.3163 41.8721 32.8579 41.839Z" fill="white"/>
<path d="M32.8579 41.839C35.3994 41.8054 36.9346 42.3858 36.9346 42.3858C36.9346 42.3858 36.9238 40.7452 37.8387 38.3738C38.7536 36.0027 36.2939 34.418 36.2939 34.418L32.99 36.7164L29.686 39.0144C29.686 39.0144 30.3163 41.8721 32.8579 41.839Z" stroke="#76C92B" stroke-width="1.30512" stroke-miterlimit="10" stroke-linecap="round" stroke-linejoin="round"/>
<path d="M33.9645 39.9002C33.6432 39.4384 33.7573 38.8033 34.2188 38.4819C34.681 38.1614 35.3157 38.2748 35.637 38.737C35.9584 39.1989 35.845 39.8339 35.3828 40.1545C34.9209 40.4762 34.2858 40.3624 33.9645 39.9002Z" fill="white"/>
<path d="M33.9645 39.9002C33.6432 39.4384 33.7573 38.8033 34.2188 38.4819C34.681 38.1614 35.3157 38.2748 35.637 38.737C35.9584 39.1989 35.845 39.8339 35.3828 40.1545C34.9209 40.4762 34.2858 40.3624 33.9645 39.9002Z" stroke="#76C92B" stroke-width="1.30512" stroke-miterlimit="10" stroke-linecap="round" stroke-linejoin="round"/>
<path d="M21.5395 43.2577C23.608 44.7346 24.5017 46.111 24.5017 46.111C24.5017 46.111 25.4649 44.7821 27.6053 43.4126C29.7468 42.043 28.7018 39.3091 28.7018 39.3091L24.6781 39.2065L20.6553 39.1035C20.6553 39.1035 19.4718 41.7795 21.5395 43.2577Z" fill="white"/>
<path d="M21.5395 43.2577C23.608 44.7346 24.5017 46.111 24.5017 46.111C24.5017 46.111 25.4649 44.7821 27.6053 43.4126C29.7468 42.043 28.7018 39.3091 28.7018 39.3091L24.6781 39.2065L20.6553 39.1035C20.6553 39.1035 19.4718 41.7795 21.5395 43.2577Z" stroke="#76C92B" stroke-width="1.30512" stroke-miterlimit="10" stroke-linecap="round" stroke-linejoin="round"/>
<path d="M23.5772 42.3501C23.5912 41.7873 24.0594 41.343 24.6219 41.3578C25.1843 41.3718 25.6286 41.8396 25.6138 42.402C25.5998 42.9652 25.132 43.4087 24.5696 43.3947C24.0071 43.38 23.5629 42.9125 23.5772 42.3501Z" fill="white"/>
<path d="M23.5772 42.3501C23.5912 41.7873 24.0594 41.343 24.6219 41.3578C25.1843 41.3718 25.6286 41.8396 25.6138 42.402C25.5998 42.9652 25.132 43.4087 24.5696 43.3947C24.0071 43.38 23.5629 42.9125 23.5772 42.3501Z" stroke="#76C92B" stroke-width="1.30512" stroke-miterlimit="10" stroke-linecap="round" stroke-linejoin="round"/>
<path d="M11.5774 37.7006C12.3698 40.1156 12.2752 41.7538 12.2752 41.7538C12.2752 41.7538 13.8379 41.2533 16.3747 41.4161C18.9106 41.5798 19.6866 38.758 19.6866 38.758L16.5048 36.2944L13.3234 33.8291C13.3234 33.8291 10.7855 35.2857 11.5774 37.7006Z" fill="white"/>
<path d="M11.5774 37.7006C12.3698 40.1156 12.2752 41.7538 12.2752 41.7538C12.2752 41.7538 13.8379 41.2533 16.3747 41.4161C18.9106 41.5798 19.6866 38.758 19.6866 38.758L16.5048 36.2944L13.3234 33.8291C13.3234 33.8291 10.7855 35.2857 11.5774 37.7006Z" stroke="#76C92B" stroke-width="1.30512" stroke-miterlimit="10" stroke-linecap="round" stroke-linejoin="round"/>
<path d="M13.7571 38.177C14.1015 37.7323 14.7414 37.6513 15.1861 37.9954C15.6312 38.3398 15.7126 38.9805 15.3677 39.4252C15.0232 39.8699 14.3834 39.9513 13.9387 39.6068C13.4936 39.2615 13.4122 38.6225 13.7571 38.177Z" fill="white"/>
<path d="M13.7571 38.177C14.1015 37.7323 14.7414 37.6513 15.1861 37.9954C15.6312 38.3398 15.7126 38.9805 15.3677 39.4252C15.0232 39.8699 14.3834 39.9513 13.9387 39.6068C13.4936 39.2615 13.4122 38.6225 13.7571 38.177Z" stroke="#76C92B" stroke-width="1.30512" stroke-miterlimit="10" stroke-linecap="round" stroke-linejoin="round"/>
<path d="M6.83619 27.3249C6.04543 29.7402 5 31.0056 5 31.0056C5 31.0056 6.55557 31.5265 8.50352 33.1595C10.4511 34.7921 12.7467 32.9775 12.7467 32.9775L11.6406 29.1076L10.5349 25.2376C10.5349 25.2376 7.62734 24.9099 6.83619 27.3249Z" fill="white"/>
<path d="M6.83619 27.3249C6.04543 29.7402 5 31.0056 5 31.0056C5 31.0056 6.55557 31.5265 8.50352 33.1595C10.4511 34.7921 12.7467 32.9775 12.7467 32.9775L11.6406 29.1076L10.5349 25.2376C10.5349 25.2376 7.62734 24.9099 6.83619 27.3249Z" stroke="#76C92B" stroke-width="1.30512" stroke-miterlimit="10" stroke-linecap="round" stroke-linejoin="round"/>
<path d="M8.31208 28.999C8.85296 28.8454 9.41738 29.1587 9.57146 29.6988C9.72634 30.2405 9.413 30.8045 8.87172 30.9594C8.33085 31.113 7.76722 30.7997 7.61234 30.2588C7.45746 29.7183 7.77081 29.1539 8.31208 28.999Z" fill="white"/>
<path d="M8.31208 28.999C8.85296 28.8454 9.41738 29.1587 9.57146 29.6988C9.72634 30.2405 9.413 30.8045 8.87172 30.9594C8.33085 31.113 7.76722 30.7997 7.61234 30.2588C7.45746 29.7183 7.77081 29.1539 8.31208 28.999Z" stroke="#76C92B" stroke-width="1.30512" stroke-miterlimit="10" stroke-linecap="round" stroke-linejoin="round"/>
<path d="M9.15831 16.1564C7.09101 17.6354 5.49951 18.0353 5.49951 18.0353C5.49951 18.0353 6.44515 19.3765 7.0483 21.8458C7.65144 24.3143 10.5758 24.2105 10.5758 24.2105L11.9753 20.4367L13.3747 16.6638C13.3747 16.6638 11.2256 14.6783 9.15831 16.1564Z" fill="white"/>
<path d="M9.15831 16.1564C7.09101 17.6354 5.49951 18.0353 5.49951 18.0353C5.49951 18.0353 6.44515 19.3765 7.0483 21.8458C7.65144 24.3143 10.5758 24.2105 10.5758 24.2105L11.9753 20.4367L13.3747 16.6638C13.3747 16.6638 11.2256 14.6783 9.15831 16.1564Z" stroke="#76C92B" stroke-width="1.30512" stroke-miterlimit="10" stroke-linecap="round" stroke-linejoin="round"/>
<path d="M9.35431 18.3793C9.88161 18.5748 10.1506 19.1612 9.95505 19.6885C9.75946 20.2163 9.17307 20.4849 8.64577 20.2893C8.11847 20.0937 7.84944 19.5081 8.04503 18.98C8.23982 18.4527 8.827 18.1837 9.35431 18.3793Z" fill="white"/>
<path d="M9.35431 18.3793C9.88161 18.5748 10.1506 19.1612 9.95505 19.6885C9.75946 20.2163 9.17307 20.4849 8.64577 20.2893C8.11847 20.0937 7.84944 19.5081 8.04503 18.98C8.23982 18.4527 8.827 18.1837 9.35431 18.3793Z" stroke="#76C92B" stroke-width="1.30512" stroke-miterlimit="10" stroke-linecap="round" stroke-linejoin="round"/>
<path d="M17.6381 8.52702C15.0965 8.49548 13.5769 7.87598 13.5769 7.87598C13.5769 7.87598 13.545 9.51616 12.5698 11.8637C11.5946 14.2104 14.0136 15.8578 14.0136 15.8578L17.3746 13.6444L20.736 11.4314C20.736 11.4314 20.1796 8.55895 17.6381 8.52702Z" fill="white"/>
<path d="M17.6381 8.52702C15.0965 8.49548 13.5769 7.87598 13.5769 7.87598C13.5769 7.87598 13.545 9.51616 12.5698 11.8637C11.5946 14.2104 14.0136 15.8578 14.0136 15.8578L17.3746 13.6444L20.736 11.4314C20.736 11.4314 20.1796 8.55895 17.6381 8.52702Z" stroke="#76C92B" stroke-width="1.30512" stroke-miterlimit="10" stroke-linecap="round" stroke-linejoin="round"/>
<path d="M16.4834 10.4371C16.7924 10.9069 16.6627 11.5388 16.1928 11.8485C15.723 12.1583 15.0907 12.0278 14.7818 11.5571C14.472 11.0873 14.6022 10.4558 15.072 10.1465C15.5426 9.83711 16.1737 9.96725 16.4834 10.4371Z" fill="white"/>
<path d="M16.4834 10.4371C16.7924 10.9069 16.6627 11.5388 16.1928 11.8485C15.723 12.1583 15.0907 12.0278 14.7818 11.5571C14.472 11.0873 14.6022 10.4558 15.072 10.1465C15.5426 9.83711 16.1737 9.96725 16.4834 10.4371Z" stroke="#76C92B" stroke-width="1.30512" stroke-miterlimit="10" stroke-linecap="round" stroke-linejoin="round"/>
<path d="M39.9616 25.2811C39.9616 33.5251 33.2787 40.2073 25.0351 40.2073C16.7914 40.2073 10.1089 33.5251 10.1089 25.2811C10.1089 17.0374 16.7914 10.3545 25.0351 10.3545C33.2787 10.3545 39.9616 17.0374 39.9616 25.2811Z" fill="white"/>
<path d="M39.9616 25.2811C39.9616 33.5251 33.2787 40.2073 25.0351 40.2073C16.7914 40.2073 10.1089 33.5251 10.1089 25.2811C10.1089 17.0374 16.7914 10.3545 25.0351 10.3545C33.2787 10.3545 39.9616 17.0374 39.9616 25.2811Z" stroke="#76C92B" stroke-width="1.30512" stroke-miterlimit="10" stroke-linecap="round" stroke-linejoin="round"/>
<path d="M31.5539 20.7164H18.5138C18.3051 20.7164 18.1362 20.5468 18.1362 20.338C18.1362 20.1288 18.3051 19.96 18.5138 19.96H31.5539C31.7635 19.96 31.9324 20.1288 31.9324 20.338C31.9324 20.5468 31.7635 20.7164 31.5539 20.7164Z" fill="#76C92B"/>
<path d="M28.4388 33.8499C28.2296 33.8499 28.0608 33.681 28.0608 33.4727V20.338C28.0608 20.1288 28.2296 19.96 28.4388 19.96C28.6472 19.96 28.8164 20.1288 28.8164 20.338V33.4727C28.8164 33.681 28.6472 33.8499 28.4388 33.8499Z" fill="#76C92B"/>
<path d="M24.146 31.248C23.5213 31.248 22.8391 31.137 22.1014 30.8672C21.3534 30.595 20.8416 30.1567 20.5802 29.5639C20.0046 28.259 20.7207 26.5138 21.4791 24.6661C22.1114 23.1233 22.7664 21.5286 22.4946 20.4293C22.4439 20.2261 22.5676 20.0217 22.7704 19.971C22.9732 19.9211 23.178 20.0445 23.2279 20.2477C23.5592 21.5869 22.857 23.2977 22.1776 24.9523C21.5134 26.5725 20.8261 28.2486 21.2719 29.2593C21.4496 29.6613 21.8056 29.9547 22.3605 30.1579C26.0069 31.4899 28.1001 28.3832 28.1209 28.3516C28.2359 28.176 28.4714 28.1289 28.6442 28.2431C28.8186 28.3588 28.8669 28.5927 28.7524 28.7668C28.7324 28.7971 27.0799 31.248 24.146 31.248Z" fill="#76C92B"/>
<path d="M25.8808 17.558C25.8808 18.0258 25.5012 18.4046 25.0338 18.4046C24.5656 18.4046 24.1868 18.0258 24.1868 17.558C24.1868 17.0902 24.5656 16.7109 25.0338 16.7109C25.5012 16.7109 25.8808 17.0902 25.8808 17.558Z" fill="#76C92B"/>
</svg>
