<svg width="50" height="50" viewBox="0 0 50 50" fill="none" xmlns="http://www.w3.org/2000/svg">
<circle cx="25" cy="25" r="24.5" fill="white" stroke="#EDCA3A"/>
<path d="M29.3986 8.03201C26.5839 6.20966 25.324 4.44913 25.324 4.44913C25.324 4.44913 24.1346 6.25841 21.3951 8.19129C18.6567 10.1241 20.1975 13.6634 20.1975 13.6634L25.5052 13.5578L30.8129 13.4522C30.8129 13.4522 32.2117 9.85439 29.3986 8.03201Z" fill="white"/>
<path d="M29.3986 8.03201C26.5839 6.20966 25.324 4.44913 25.324 4.44913C25.324 4.44913 24.1346 6.25841 21.3951 8.19129C18.6567 10.1241 20.1975 13.6634 20.1975 13.6634L25.5052 13.5578L30.8129 13.4522C30.8129 13.4522 32.2117 9.85439 29.3986 8.03201Z" stroke="#EDCA3A" stroke-width="1.23038" stroke-miterlimit="10"/>
<path d="M40.7128 15.9465C40.0713 12.6559 40.4631 10.5272 40.4631 10.5272C40.4631 10.5272 38.3353 10.9265 35.0423 10.2982C31.7489 9.66831 30.2717 13.2344 30.2717 13.2344L34.0327 16.982L37.7945 20.7283C37.7945 20.7283 41.354 19.2371 40.7128 15.9465Z" fill="white"/>
<path d="M40.7128 15.9465C40.0713 12.6559 40.4631 10.5272 40.4631 10.5272C40.4631 10.5272 38.3353 10.9265 35.0423 10.2982C31.7489 9.66831 30.2717 13.2344 30.2717 13.2344L34.0327 16.982L37.7945 20.7283C37.7945 20.7283 41.354 19.2371 40.7128 15.9465Z" stroke="#EDCA3A" stroke-width="1.23038" stroke-miterlimit="10"/>
<path d="M42.8693 29.5836C44.7924 26.8372 46.5967 25.6412 46.5967 25.6412C46.5967 25.6412 44.8323 24.3874 42.9983 21.5805C41.1652 18.7737 37.5725 20.1862 37.5725 20.1862L37.4873 25.4939L37.402 30.8025C37.402 30.8025 40.947 32.3296 42.8693 29.5836Z" fill="white"/>
<path d="M42.8693 29.5836C44.7924 26.8372 46.5967 25.6412 46.5967 25.6412C46.5967 25.6412 44.8323 24.3874 42.9983 21.5805C41.1652 18.7737 37.5725 20.1862 37.5725 20.1862L37.4873 25.4939L37.402 30.8025C37.402 30.8025 40.947 32.3296 42.8693 29.5836Z" stroke="#EDCA3A" stroke-width="1.23038" stroke-miterlimit="10"/>
<path d="M34.5531 40.6042C37.8639 40.0812 39.9779 40.5491 39.9779 40.5491C39.9779 40.5491 39.6549 38.4089 40.4026 35.1406C41.1495 31.8727 37.6387 30.2676 37.6387 30.2676L33.759 33.891L29.8789 37.5153C29.8789 37.5153 31.241 41.1268 34.5531 40.6042Z" fill="white"/>
<path d="M34.5531 40.6042C37.8639 40.0812 39.9779 40.5491 39.9779 40.5491C39.9779 40.5491 39.6549 38.4089 40.4026 35.1406C41.1495 31.8727 37.6387 30.2676 37.6387 30.2676L33.759 33.891L29.8789 37.5153C29.8789 37.5153 31.241 41.1268 34.5531 40.6042Z" stroke="#EDCA3A" stroke-width="1.23038" stroke-miterlimit="10"/>
<path d="M20.8463 42.2701C23.5215 44.2903 24.6521 46.1366 24.6521 46.1366C24.6521 46.1366 25.968 44.418 28.8389 42.6867C31.7097 40.9555 30.4282 37.3145 30.4282 37.3145L25.1266 37.0382L19.825 36.7615C19.825 36.7615 18.1712 40.2495 20.8463 42.2701Z" fill="white"/>
<path d="M20.8463 42.2701C23.5215 44.2903 24.6521 46.1366 24.6521 46.1366C24.6521 46.1366 25.968 44.418 28.8389 42.6867C31.7097 40.9555 30.4282 37.3145 30.4282 37.3145L25.1266 37.0382L19.825 36.7615C19.825 36.7615 18.1712 40.2495 20.8463 42.2701Z" stroke="#EDCA3A" stroke-width="1.23038" stroke-miterlimit="10"/>
<path d="M10.1325 33.5631C10.5353 36.8917 9.99218 38.9871 9.99218 38.9871C9.99218 38.9871 12.1431 38.741 15.3817 39.6057C18.6211 40.4696 20.3509 37.0187 20.3509 37.0187L16.8697 33.0118L13.3876 29.0037C13.3876 29.0037 9.72898 30.2349 10.1325 33.5631Z" fill="white"/>
<path d="M10.1325 33.5631C10.5353 36.8917 9.99218 38.9871 9.99218 38.9871C9.99218 38.9871 12.1431 38.741 15.3817 39.6057C18.6211 40.4696 20.3509 37.0187 20.3509 37.0187L16.8697 33.0118L13.3876 29.0037C13.3876 29.0037 9.72898 30.2349 10.1325 33.5631Z" stroke="#EDCA3A" stroke-width="1.23038" stroke-miterlimit="10"/>
<path d="M8.96085 19.8051C6.84519 22.4064 4.96011 23.4696 4.96011 23.4696C4.96011 23.4696 6.63004 24.8468 8.25646 27.7784C9.88328 30.7096 13.568 29.5594 13.568 29.5594L14.0355 24.271L14.5022 18.9827C14.5022 18.9827 11.0761 17.2046 8.96085 19.8051Z" fill="white"/>
<path d="M8.96085 19.8051C6.84519 22.4064 4.96011 23.4696 4.96011 23.4696C4.96011 23.4696 6.63004 24.8468 8.25646 27.7784C9.88328 30.7096 13.568 29.5594 13.568 29.5594L14.0355 24.271L14.5022 18.9827C14.5022 18.9827 11.0761 17.2046 8.96085 19.8051Z" stroke="#EDCA3A" stroke-width="1.23038" stroke-miterlimit="10"/>
<path d="M17.5728 9.65054C14.2422 10.0342 12.1502 9.47771 12.1502 9.47771C12.1502 9.47771 12.3831 11.6301 11.4995 14.8645C10.6168 18.0985 14.0565 19.8489 14.0565 19.8489L18.0851 16.3906L22.1132 12.933C22.1132 12.933 20.9035 9.2669 17.5728 9.65054Z" fill="white"/>
<path d="M17.5728 9.65054C14.2422 10.0342 12.1502 9.47771 12.1502 9.47771C12.1502 9.47771 12.3831 11.6301 11.4995 14.8645C10.6168 18.0985 14.0565 19.8489 14.0565 19.8489L18.0851 16.3906L22.1132 12.933C22.1132 12.933 20.9035 9.2669 17.5728 9.65054Z" stroke="#EDCA3A" stroke-width="1.23038" stroke-miterlimit="10"/>
<path d="M29.1193 9.36299C26.5233 7.68145 25.36 6.0575 25.36 6.0575C25.36 6.0575 24.2627 7.72644 21.7344 9.50996C19.2078 11.2947 20.6291 14.5606 20.6291 14.5606L25.5273 14.4631L30.4251 14.3657C30.4251 14.3657 31.7162 11.0458 29.1193 9.36299Z" fill="white"/>
<path d="M29.1193 9.36299C26.5233 7.68145 25.36 6.0575 25.36 6.0575C25.36 6.0575 24.2627 7.72644 21.7344 9.50996C19.2078 11.2947 20.6291 14.5606 20.6291 14.5606L25.5273 14.4631L30.4251 14.3657C30.4251 14.3657 31.7162 11.0458 29.1193 9.36299Z" stroke="#EDCA3A" stroke-width="0.5" stroke-miterlimit="10"/>
<path d="M39.56 16.6668C38.9684 13.6306 39.3299 11.6661 39.3299 11.6661C39.3299 11.6661 37.3661 12.0346 34.3278 11.4549C31.2891 10.8736 29.9254 14.1641 29.9254 14.1641L33.3966 17.6222L36.8669 21.0794C36.8669 21.0794 40.1524 19.7034 39.56 16.6668Z" fill="white"/>
<path d="M39.56 16.6668C38.9684 13.6306 39.3299 11.6661 39.3299 11.6661C39.3299 11.6661 37.3661 12.0346 34.3278 11.4549C31.2891 10.8736 29.9254 14.1641 29.9254 14.1641L33.3966 17.6222L36.8669 21.0794C36.8669 21.0794 40.1524 19.7034 39.56 16.6668Z" stroke="#EDCA3A" stroke-width="0.5" stroke-miterlimit="10"/>
<path d="M41.5521 29.2516C43.3263 26.7173 44.991 25.6132 44.991 25.6132C44.991 25.6132 43.3633 24.4564 41.6705 21.8664C39.9789 19.2759 36.664 20.5793 36.664 20.5793L36.5847 25.4781L36.5063 30.3756C36.5063 30.3756 39.7778 31.785 41.5521 29.2516Z" fill="white"/>
<path d="M41.5521 29.2516C43.3263 26.7173 44.991 25.6132 44.991 25.6132C44.991 25.6132 43.3633 24.4564 41.6705 21.8664C39.9789 19.2759 36.664 20.5793 36.664 20.5793L36.5847 25.4781L36.5063 30.3756C36.5063 30.3756 39.7778 31.785 41.5521 29.2516Z" stroke="#EDCA3A" stroke-width="0.5" stroke-miterlimit="10"/>
<path d="M33.8772 39.4215C36.933 38.9394 38.8832 39.3714 38.8832 39.3714C38.8832 39.3714 38.5852 37.3958 39.2751 34.3803C39.9642 31.3639 36.7241 29.8832 36.7241 29.8832L33.1442 33.2266L29.5638 36.5713C29.5638 36.5713 30.821 39.9041 33.8772 39.4215Z" fill="white"/>
<path d="M33.8772 39.4215C36.933 38.9394 38.8832 39.3714 38.8832 39.3714C38.8832 39.3714 38.5852 37.3958 39.2751 34.3803C39.9642 31.3639 36.7241 29.8832 36.7241 29.8832L33.1442 33.2266L29.5638 36.5713C29.5638 36.5713 30.821 39.9041 33.8772 39.4215Z" stroke="#EDCA3A" stroke-width="0.5" stroke-miterlimit="10"/>
<path d="M21.2286 40.9587C23.6973 42.8228 24.7402 44.5266 24.7402 44.5266C24.7402 44.5266 25.9552 42.9405 28.6046 41.343C31.2539 39.7455 30.0706 36.3855 30.0706 36.3855L25.1779 36.1305L20.286 35.8756C20.286 35.8756 18.7596 39.0941 21.2286 40.9587Z" fill="white"/>
<path d="M21.2286 40.9587C23.6973 42.8228 24.7402 44.5266 24.7402 44.5266C24.7402 44.5266 25.9552 42.9405 28.6046 41.343C31.2539 39.7455 30.0706 36.3855 30.0706 36.3855L25.1779 36.1305L20.286 35.8756C20.286 35.8756 18.7596 39.0941 21.2286 40.9587Z" stroke="#EDCA3A" stroke-width="0.5" stroke-miterlimit="10"/>
<path d="M11.3415 32.9233C11.713 35.9947 11.2115 37.9279 11.2115 37.9279C11.2115 37.9279 13.196 37.7017 16.185 38.4994C19.1748 39.2968 20.771 36.1126 20.771 36.1126L17.5584 32.4144L14.3453 28.7162C14.3453 28.7162 10.9697 29.8524 11.3415 32.9233Z" fill="white"/>
<path d="M11.3415 32.9233C11.713 35.9947 11.2115 37.9279 11.2115 37.9279C11.2115 37.9279 13.196 37.7017 16.185 38.4994C19.1748 39.2968 20.771 36.1126 20.771 36.1126L17.5584 32.4144L14.3453 28.7162C14.3453 28.7162 10.9697 29.8524 11.3415 32.9233Z" stroke="#EDCA3A" stroke-width="0.5" stroke-miterlimit="10"/>
<path d="M10.2607 20.2283C8.30828 22.628 6.56799 23.6093 6.56799 23.6093C6.56799 23.6093 8.10979 24.8805 9.61066 27.5858C11.1119 30.2907 14.5119 29.2294 14.5119 29.2294L14.9434 24.3494L15.3737 19.4694C15.3737 19.4694 12.2128 17.8282 10.2607 20.2283Z" fill="white"/>
<path d="M10.2607 20.2283C8.30828 22.628 6.56799 23.6093 6.56799 23.6093C6.56799 23.6093 8.10979 24.8805 9.61066 27.5858C11.1119 30.2907 14.5119 29.2294 14.5119 29.2294L14.9434 24.3494L15.3737 19.4694C15.3737 19.4694 12.2128 17.8282 10.2607 20.2283Z" stroke="#EDCA3A" stroke-width="0.5" stroke-miterlimit="10"/>
<path d="M18.2082 10.857C15.1344 11.211 13.2047 10.6979 13.2047 10.6979C13.2047 10.6979 13.4193 12.6843 12.6044 15.6678C11.7891 18.6529 14.9636 20.2676 14.9636 20.2676L18.6809 17.0766L22.3979 13.8857C22.3979 13.8857 21.2816 10.5035 18.2082 10.857Z" fill="white"/>
<path d="M18.2082 10.857C15.1344 11.211 13.2047 10.6979 13.2047 10.6979C13.2047 10.6979 13.4193 12.6843 12.6044 15.6678C11.7891 18.6529 14.9636 20.2676 14.9636 20.2676L18.6809 17.0766L22.3979 13.8857C22.3979 13.8857 21.2816 10.5035 18.2082 10.857Z" stroke="#EDCA3A" stroke-width="0.5" stroke-miterlimit="10"/>
<path d="M41.3317 24.9957C41.5031 33.6092 34.6596 40.7302 26.0461 40.9016C17.433 41.073 10.3116 34.23 10.1402 25.6165C9.96878 17.0025 16.8123 9.88155 25.4254 9.71014C34.0389 9.53873 41.1603 16.3818 41.3317 24.9957Z" fill="white"/>
<path d="M41.3317 24.9957C41.5031 33.6092 34.6596 40.7302 26.0461 40.9016C17.433 41.073 10.3116 34.23 10.1402 25.6165C9.96878 17.0025 16.8123 9.88155 25.4254 9.71014C34.0389 9.53873 41.1603 16.3818 41.3317 24.9957Z" stroke="#EDCA3A" stroke-width="1.23038" stroke-miterlimit="10"/>
<path d="M33.7584 19.977L17.6236 20.2981C17.3908 20.3027 17.1978 20.1177 17.1932 19.8841C17.1886 19.6517 17.374 19.4591 17.6068 19.4545L33.7416 19.1334C33.9749 19.1288 34.1665 19.3138 34.1712 19.5462C34.1758 19.7799 33.9916 19.9723 33.7584 19.977Z" fill="#EDCA3A"/>
<path d="M24.6906 34.4338C24.5422 34.4367 24.3955 34.361 24.3163 34.2233L20.9838 28.4345C20.845 28.1914 20.8181 27.9021 20.9131 27.6385C21.0077 27.3759 21.2115 27.1688 21.4741 27.0713L23.7118 26.234C24.7076 25.8614 25.3618 24.8976 25.3407 23.8349L25.2588 19.7229C25.2542 19.4905 25.4388 19.298 25.6725 19.2933C25.9053 19.2887 26.0978 19.4737 26.1024 19.7061L26.1843 23.8181C26.2125 25.2379 25.3385 26.526 24.0083 27.0242L21.7702 27.8615C21.7313 27.8756 21.7144 27.9046 21.7078 27.9251C21.6995 27.9457 21.6955 27.9782 21.7153 28.0127L25.0482 33.8011C25.1641 34.0034 25.0944 34.2623 24.8929 34.3786C24.8283 34.4148 24.7596 34.4324 24.6906 34.4338Z" fill="#EDCA3A"/>
<path d="M26.487 16.9865C26.4964 17.4605 26.1195 17.8523 25.6459 17.8617C25.1715 17.8712 24.7797 17.4947 24.7703 17.0207C24.7608 16.5459 25.1373 16.1545 25.6117 16.145C26.0853 16.1356 26.4775 16.5117 26.487 16.9865Z" fill="#EDCA3A"/>
</svg>
