<svg width="50" height="50" viewBox="0 0 50 50" fill="none" xmlns="http://www.w3.org/2000/svg">
<circle cx="25" cy="25" r="24.5" fill="white" stroke="#D60C31"/>
<path d="M41.5377 18.0068C40.4703 12.4744 41.1354 8.89731 41.1354 8.89731C41.1354 8.89731 37.5586 9.5621 32.0261 8.49463C26.4932 7.42717 23.9983 13.4163 23.9983 13.4163L30.3076 19.725L36.6166 26.0343C36.6166 26.0343 42.6056 23.5397 41.5377 18.0068Z" stroke="#EF2D3F" stroke-width="1.33333" stroke-miterlimit="10" stroke-linejoin="round"/>
<path d="M31.9906 41.5387C37.5235 40.4707 41.0999 41.136 41.0999 41.136C41.0999 41.136 40.4352 37.5589 41.5031 32.0265C42.5713 26.4936 36.5819 23.999 36.5819 23.999L30.2726 30.3083L23.9636 36.6175C23.9636 36.6175 26.4581 42.6061 31.9906 41.5387Z" stroke="#EF2D3F" stroke-width="1.33333" stroke-miterlimit="10" stroke-linejoin="round"/>
<path d="M8.45907 31.9919C9.5273 37.5248 8.86181 41.1013 8.86181 41.1013C8.86181 41.1013 12.439 40.4365 17.9719 41.5045C23.5044 42.5725 25.9989 36.5834 25.9989 36.5834L19.6892 30.2741L13.3802 23.9648C13.3802 23.9648 7.39124 26.4595 8.45907 31.9919Z" stroke="#EF2D3F" stroke-width="1.33333" stroke-miterlimit="10" stroke-linejoin="round"/>
<path d="M18.0046 8.46046C12.4721 9.52843 8.89527 8.86364 8.89527 8.86364C8.89527 8.86364 9.55996 12.4402 8.49252 17.9731C7.42469 23.5055 13.4137 26.0001 13.4137 26.0001L19.723 19.6909L26.032 13.3816C26.032 13.3816 23.5375 7.393 18.0046 8.46046Z" stroke="#EF2D3F" stroke-width="1.33333" stroke-miterlimit="10" stroke-linejoin="round"/>
<path d="M37.8588 19.5627C37.0286 15.2613 37.5455 12.4801 37.5455 12.4801C37.5455 12.4801 34.7643 12.9973 30.4628 12.1665C26.1609 11.3366 24.2217 15.9931 24.2217 15.9931L29.1275 20.8983L34.0322 25.8039C34.0322 25.8039 38.6886 23.864 37.8588 19.5627Z" stroke="#EF2D3F" stroke-width="1.33333" stroke-miterlimit="10" stroke-linejoin="round"/>
<path d="M30.4351 37.8596C34.7363 37.0298 37.5174 37.5465 37.5174 37.5465C37.5174 37.5465 37.0009 34.7653 37.8307 30.4639C38.6605 26.162 34.0045 24.2227 34.0045 24.2227L29.0994 29.1283L24.1936 34.0334C24.1936 34.0334 26.1332 38.69 30.4351 37.8596Z" stroke="#EF2D3F" stroke-width="1.33333" stroke-miterlimit="10" stroke-linejoin="round"/>
<path d="M12.1389 30.4366C12.9691 34.7379 12.4519 37.5192 12.4519 37.5192C12.4519 37.5192 15.2326 37.0024 19.5346 37.8323C23.8361 38.6626 25.7753 34.0066 25.7753 34.0066L20.8706 29.101L15.9648 24.1953C15.9648 24.1953 11.3088 26.1347 12.1389 30.4366Z" stroke="#EF2D3F" stroke-width="1.33333" stroke-miterlimit="10" stroke-linejoin="round"/>
<path d="M19.5612 12.1411C15.2597 12.9714 12.4786 12.4547 12.4786 12.4547C12.4786 12.4547 12.9962 15.2349 12.1652 19.5368C11.3354 23.8382 15.9919 25.778 15.9919 25.778L20.8969 20.8729L25.8024 15.9672C25.8024 15.9672 23.8628 11.3112 19.5612 12.1411Z" stroke="#EF2D3F" stroke-width="1.33333" stroke-miterlimit="10" stroke-linejoin="round"/>
<path d="M39.5502 24.9991C39.5502 33.0356 33.035 39.5515 24.9986 39.5515C16.9614 39.5515 10.4465 33.0356 10.4465 24.9991C10.4465 16.9621 16.9614 10.4473 24.9986 10.4473C33.035 10.4473 39.5502 16.9621 39.5502 24.9991Z" fill="white"/>
<path d="M39.5502 24.9991C39.5502 33.0356 33.035 39.5515 24.9986 39.5515C16.9614 39.5515 10.4465 33.0356 10.4465 24.9991C10.4465 16.9621 16.9614 10.4473 24.9986 10.4473C33.035 10.4473 39.5502 16.9621 39.5502 24.9991Z" stroke="#EF2D3F" stroke-width="1.33333" stroke-miterlimit="10" stroke-linejoin="round"/>
<path d="M21.3225 31.8158C20.4111 31.4296 19.5986 30.7248 19.1437 29.7368C18.9143 29.2452 18.8217 28.6824 18.8386 28.1281C18.8539 27.5659 19.0394 27.0462 19.257 26.538C19.5213 26.0453 19.9213 25.559 20.4888 25.2979C21.0472 25.0263 21.7076 25.0323 22.237 25.2319C23.3142 25.6451 23.9511 26.5925 24.219 27.5609L23.826 27.6024C23.9033 26.8306 24.0586 26.0927 24.3578 25.3629C24.655 24.6486 25.1593 23.9138 25.9562 23.5206C26.1527 23.4291 26.3527 23.3301 26.5648 23.29C26.7738 23.2325 26.9879 23.181 27.1997 23.1815C27.6024 23.132 28.1119 23.173 28.5452 23.3551C29.4354 23.7087 30.0185 24.4285 30.4314 25.1479C30.8209 25.8897 31.0593 26.6845 31.1263 27.4959C31.2063 28.3032 31.1389 29.1291 30.8942 29.9159C30.6495 30.6963 30.2009 31.4561 29.5287 31.9593C28.866 32.4781 28.0209 32.6496 27.2723 32.5846C27.2358 32.5811 27.2091 32.5496 27.2123 32.5126C27.2146 32.485 27.2362 32.4621 27.2621 32.4545C27.9758 32.259 28.6032 31.9148 29.0154 31.4031C29.2244 31.1535 29.4001 30.8804 29.5162 30.5747C29.6436 30.2781 29.7373 29.9649 29.7844 29.6378C29.9977 28.3443 29.7687 26.9376 29.2126 25.7861C28.9334 25.2184 28.5428 24.7097 28.0585 24.473C27.8142 24.352 27.5746 24.3 27.2405 24.2985C27.0801 24.279 26.9315 24.303 26.7785 24.317C26.6205 24.3165 26.4809 24.371 26.3311 24.407C25.7366 24.5601 25.2154 25.0218 24.8499 25.612C24.4809 26.2003 24.2793 26.9261 24.2252 27.6224L24.2248 27.6279C24.2162 27.7375 24.1201 27.8195 24.0103 27.8115C23.9233 27.8045 23.8542 27.743 23.8327 27.6634C23.6021 26.7976 22.8166 26.1183 22.0272 26.0413C21.2264 25.9517 20.6711 26.3949 20.2915 27.0757C19.9162 27.798 19.7708 28.6204 19.9841 29.4282C20.2009 30.2386 20.7323 31.0199 21.3911 31.7047L21.3954 31.7097C21.4205 31.7362 21.4194 31.7778 21.3935 31.8023C21.3739 31.8212 21.346 31.8253 21.3225 31.8158Z" fill="#EF2D3F"/>
<path d="M27.1989 23.5063C27.0193 23.5063 26.8738 23.3607 26.8738 23.1811V19.8456C26.8738 19.6661 27.0193 19.5205 27.1989 19.5205C27.3785 19.5205 27.524 19.6661 27.524 19.8456V23.1811C27.524 23.3607 27.3785 23.5063 27.1989 23.5063Z" fill="#EF2D3F"/>
<path d="M31.1588 20.1708H18.8366C18.6574 20.1708 18.5115 20.0252 18.5115 19.8456C18.5115 19.6661 18.6574 19.5205 18.8366 19.5205H31.1588C31.3388 19.5205 31.4843 19.6661 31.4843 19.8456C31.4843 20.0252 31.3388 20.1708 31.1588 20.1708Z" fill="#EF2D3F"/>
<path d="M27.6905 17.8945C27.6905 18.1651 27.4705 18.3847 27.2 18.3847C26.9286 18.3847 26.709 18.1651 26.709 17.8945C26.709 17.6234 26.9286 17.4033 27.2 17.4033C27.4705 17.4033 27.6905 17.6234 27.6905 17.8945Z" fill="#EF2D3F"/>
</svg>
