<svg width="50" height="50" viewBox="0 0 50 50" fill="none" xmlns="http://www.w3.org/2000/svg">
<circle cx="25" cy="25" r="24.5" fill="white" stroke="#F68C1F"/>
<path d="M30.284 9.16182C26.7083 6.74284 25.1308 4.44434 25.1308 4.44434C25.1308 4.44434 23.5525 6.74284 19.9768 9.16182C16.4007 11.5812 18.2935 16.1774 18.2935 16.1774H25.1308H31.9673C31.9673 16.1774 33.8601 11.5812 30.284 9.16182Z" stroke="#F68C1F" stroke-width="1.16203" stroke-miterlimit="10"/>
<path d="M41.7053 21.8579C42.0571 17.5545 43.2842 15.0524 43.2842 15.0524C43.2842 15.0524 40.5082 14.8056 36.645 12.8784C32.7818 10.9505 29.707 14.8562 29.707 14.8562L33.0638 20.8124L36.4198 26.7683C36.4198 26.7683 41.3537 26.1608 41.7053 21.8579Z" fill="white"/>
<path d="M41.7053 21.8579C42.0571 17.5545 43.2842 15.0524 43.2842 15.0524C43.2842 15.0524 40.5082 14.8056 36.645 12.8784C32.7818 10.9505 29.707 14.8562 29.707 14.8562L33.0638 20.8124L36.4198 26.7683C36.4198 26.7683 41.3537 26.1608 41.7053 21.8579Z" stroke="#F68C1F" stroke-width="1.16203" stroke-miterlimit="10"/>
<path d="M36.2504 38.0413C40.1714 36.2349 42.9547 36.0764 42.9547 36.0764C42.9547 36.0764 41.806 33.5358 41.5885 29.2244C41.3714 24.9123 36.4587 24.1514 36.4587 24.1514L32.9181 29.9996L29.3779 35.8475C29.3779 35.8475 32.3293 39.8473 36.2504 38.0413Z" fill="white"/>
<path d="M36.2504 38.0413C40.1714 36.2349 42.9547 36.0764 42.9547 36.0764C42.9547 36.0764 41.806 33.5358 41.5885 29.2244C41.3714 24.9123 36.4587 24.1514 36.4587 24.1514L32.9181 29.9996L29.3779 35.8475C29.3779 35.8475 32.3293 39.8473 36.2504 38.0413Z" stroke="#F68C1F" stroke-width="1.16203" stroke-miterlimit="10"/>
<path d="M19.4765 41.235C22.9757 43.7642 24.4807 46.1103 24.4807 46.1103C24.4807 46.1103 26.1296 43.8627 29.7793 41.5561C33.4294 39.2503 31.6798 34.5973 31.6798 34.5973L24.8469 34.3841L18.014 34.1699C18.014 34.1699 15.9777 38.7051 19.4765 41.235Z" fill="white"/>
<path d="M19.4765 41.235C22.9757 43.7642 24.4807 46.1103 24.4807 46.1103C24.4807 46.1103 26.1296 43.8627 29.7793 41.5561C33.4294 39.2503 31.6798 34.5973 31.6798 34.5973L24.8469 34.3841L18.014 34.1699C18.014 34.1699 15.9777 38.7051 19.4765 41.235Z" stroke="#F68C1F" stroke-width="1.16203" stroke-miterlimit="10"/>
<path d="M8.45639 28.189C7.97084 32.4792 6.66577 34.9425 6.66577 34.9425C6.66577 34.9425 9.43298 35.2753 13.2343 37.3223C17.0349 39.3696 20.2305 35.5617 20.2305 35.5617L17.0616 29.504L13.8923 23.4463C13.8923 23.4463 8.94195 23.8989 8.45639 28.189Z" fill="white"/>
<path d="M8.45639 28.189C7.97084 32.4792 6.66577 34.9425 6.66577 34.9425C6.66577 34.9425 9.43298 35.2753 13.2343 37.3223C17.0349 39.3696 20.2305 35.5617 20.2305 35.5617L17.0616 29.504L13.8923 23.4463C13.8923 23.4463 8.94195 23.8989 8.45639 28.189Z" stroke="#F68C1F" stroke-width="1.16203" stroke-miterlimit="10"/>
<path d="M14.4117 12.1846C10.4357 13.8675 7.64941 13.9401 7.64941 13.9401C7.64941 13.9401 8.71792 16.5143 8.80067 20.8308C8.88306 25.1481 13.769 26.0613 13.769 26.0613L17.4909 20.3262L21.2127 14.5915C21.2127 14.5915 18.3876 10.5016 14.4117 12.1846Z" fill="white"/>
<path d="M14.4117 12.1846C10.4357 13.8675 7.64941 13.9401 7.64941 13.9401C7.64941 13.9401 8.71792 16.5143 8.80067 20.8308C8.88306 25.1481 13.769 26.0613 13.769 26.0613L17.4909 20.3262L21.2127 14.5915C21.2127 14.5915 18.3876 10.5016 14.4117 12.1846Z" stroke="#F68C1F" stroke-width="1.16203" stroke-miterlimit="10"/>
<path d="M38.9893 25.2832C38.9893 32.9342 32.7877 39.1361 25.1367 39.1361C17.4862 39.1361 11.2849 32.9342 11.2849 25.2832C11.2849 17.633 17.4862 11.4307 25.1367 11.4307C32.7877 11.4307 38.9893 17.633 38.9893 25.2832Z" fill="white"/>
<path d="M38.9893 25.2832C38.9893 32.9342 32.7877 39.1361 25.1367 39.1361C17.4862 39.1361 11.2849 32.9342 11.2849 25.2832C11.2849 17.633 17.4862 11.4307 25.1367 11.4307C32.7877 11.4307 38.9893 17.633 38.9893 25.2832Z" stroke="#F68C1F" stroke-width="1.28174" stroke-miterlimit="10"/>
<path d="M31.6203 20.2505H18.6495C18.443 20.2505 18.2756 20.0836 18.2756 19.877C18.2756 19.6709 18.443 19.5039 18.6495 19.5039H31.6203C31.8265 19.5039 31.9931 19.6709 31.9931 19.877C31.9931 20.0836 31.8265 20.2505 31.6203 20.2505Z" fill="#F68C1F"/>
<path d="M28.5417 33.5015C28.3352 33.5015 28.1682 33.3345 28.1682 33.1283V19.8774C28.1682 19.6713 28.3352 19.5039 28.5417 19.5039C28.7479 19.5039 28.9145 19.6713 28.9145 19.8774V33.1283C28.9145 33.3345 28.7479 33.5015 28.5417 33.5015Z" fill="#F68C1F"/>
<path d="M23.5951 24.2632C21.074 24.2632 19.0226 25.6024 19.0226 27.2491C19.0226 28.8958 21.074 30.2353 23.5951 30.2353C26.1155 30.2353 28.1676 28.8958 28.1676 27.2491C28.1676 25.6024 26.1155 24.2632 23.5951 24.2632ZM23.5951 30.9823C20.6616 30.9823 18.2756 29.3074 18.2756 27.2491C18.2756 25.1915 20.6616 23.5166 23.5951 23.5166C26.5278 23.5166 28.9139 25.1915 28.9139 27.2491C28.9139 29.3074 26.5278 30.9823 23.5951 30.9823Z" fill="#F68C1F"/>
<path d="M29.1535 17.6778C29.1535 18.0162 28.8796 18.2904 28.5409 18.2904C28.2025 18.2904 27.9282 18.0162 27.9282 17.6778C27.9282 17.3391 28.2025 17.0645 28.5409 17.0645C28.8796 17.0645 29.1535 17.3391 29.1535 17.6778Z" fill="#F68C1F"/>
</svg>
