<svg width="50" height="50" viewBox="0 0 50 50" fill="none" xmlns="http://www.w3.org/2000/svg">
<circle cx="25" cy="25" r="24.5" fill="white" stroke="#019BE3"/>
<path d="M28.7687 7.81055C26.2169 6.08405 25.0908 4.44434 25.0908 4.44434C25.0908 4.44434 23.9651 6.08405 21.4133 7.81055C18.8615 9.53705 20.2121 12.8169 20.2121 12.8169H25.0908H29.969C29.969 12.8169 31.32 9.53705 28.7687 7.81055Z" fill="white"/>
<path d="M28.7687 7.81055C26.2169 6.08405 25.0908 4.44434 25.0908 4.44434C25.0908 4.44434 23.9651 6.08405 21.4133 7.81055C18.8615 9.53705 20.2121 12.8169 20.2121 12.8169H25.0908H29.969C29.969 12.8169 31.32 9.53705 28.7687 7.81055Z" stroke="#019BE3" stroke-width="1.17509" stroke-miterlimit="10" stroke-linecap="round" stroke-linejoin="round"/>
<path d="M25.095 13.2297C25.095 13.2297 22.3638 10.9199 25.095 6.54688C25.095 6.54688 27.8099 10.8369 25.095 13.2297Z" fill="white"/>
<path d="M25.095 13.2297C25.095 13.2297 22.3638 10.9199 25.095 6.54688C25.095 6.54688 27.8099 10.8369 25.095 13.2297Z" stroke="#019BE3" stroke-width="1.17509" stroke-miterlimit="10" stroke-linecap="round" stroke-linejoin="round"/>
<path d="M39.577 14.5375C38.7651 11.5651 38.9783 9.58789 38.9783 9.58789C38.9783 9.58789 37.0561 10.0986 33.9953 9.74685C30.9353 9.39429 29.8242 12.7634 29.8242 12.7634L33.5259 15.9406L37.2271 19.1179C37.2271 19.1179 40.3893 17.5094 39.577 14.5375Z" fill="white"/>
<path d="M39.577 14.5375C38.7651 11.5651 38.9783 9.58789 38.9783 9.58789C38.9783 9.58789 37.0561 10.0986 33.9953 9.74685C30.9353 9.39429 29.8242 12.7634 29.8242 12.7634L33.5259 15.9406L37.2271 19.1179C37.2271 19.1179 40.3893 17.5094 39.577 14.5375Z" stroke="#019BE3" stroke-width="1.17509" stroke-miterlimit="10" stroke-linecap="round" stroke-linejoin="round"/>
<path d="M33.2595 16.256C33.2595 16.256 32.6916 12.7246 37.612 11.1846C37.612 11.1846 36.8777 16.208 33.2595 16.256Z" fill="white"/>
<path d="M33.2595 16.256C33.2595 16.256 32.6916 12.7246 37.612 11.1846C37.612 11.1846 36.8777 16.208 33.2595 16.256Z" stroke="#019BE3" stroke-width="1.17509" stroke-miterlimit="10" stroke-linecap="round" stroke-linejoin="round"/>
<path d="M43.3987 26.68C44.7184 23.8958 46.1687 22.5348 46.1687 22.5348C46.1687 22.5348 44.3776 21.6707 42.2843 19.4102C40.1911 17.15 37.1541 18.9821 37.1541 18.9821L37.893 23.804L38.6331 28.6264C38.6331 28.6264 42.0795 29.4642 43.3987 26.68Z" fill="white"/>
<path d="M43.3987 26.68C44.7184 23.8958 46.1687 22.5348 46.1687 22.5348C46.1687 22.5348 44.3776 21.6707 42.2843 19.4102C40.1911 17.15 37.1541 18.9821 37.1541 18.9821L37.893 23.804L38.6331 28.6264C38.6331 28.6264 42.0795 29.4642 43.3987 26.68Z" stroke="#019BE3" stroke-width="1.17509" stroke-miterlimit="10" stroke-linecap="round" stroke-linejoin="round"/>
<path d="M37.4849 23.8715C37.4849 23.8715 39.3545 20.8215 44.0909 22.858C44.0909 22.858 40.2615 26.1921 37.4849 23.8715Z" fill="white"/>
<path d="M37.4849 23.8715C37.4849 23.8715 39.3545 20.8215 44.0909 22.858C44.0909 22.858 40.2615 26.1921 37.4849 23.8715Z" stroke="#019BE3" stroke-width="1.17509" stroke-miterlimit="10" stroke-linecap="round" stroke-linejoin="round"/>
<path d="M38.3895 38.3838C41.2042 37.1301 43.191 37.0416 43.191 37.0416C43.191 37.0416 42.3945 35.2191 42.2786 32.1408C42.1626 29.0616 38.6645 28.4746 38.6645 28.4746L36.0852 32.6152L33.5059 36.7558C33.5059 36.7558 35.5749 39.6368 38.3895 38.3838Z" fill="white"/>
<path d="M38.3895 38.3838C41.2042 37.1301 43.191 37.0416 43.191 37.0416C43.191 37.0416 42.3945 35.2191 42.2786 32.1408C42.1626 29.0616 38.6645 28.4746 38.6645 28.4746L36.0852 32.6152L33.5059 36.7558C33.5059 36.7558 35.5749 39.6368 38.3895 38.3838Z" stroke="#019BE3" stroke-width="1.17509" stroke-miterlimit="10" stroke-linecap="round" stroke-linejoin="round"/>
<path d="M35.7312 32.4004C35.7312 32.4004 39.1358 31.3039 41.4035 35.9339C41.4035 35.9339 36.327 35.9694 35.7312 32.4004Z" fill="white"/>
<path d="M35.7312 32.4004C35.7312 32.4004 39.1358 31.3039 41.4035 35.9339C41.4035 35.9339 36.327 35.9694 35.7312 32.4004Z" stroke="#019BE3" stroke-width="1.17509" stroke-miterlimit="10" stroke-linecap="round" stroke-linejoin="round"/>
<path d="M26.9647 44.0025C29.9162 44.8845 31.482 46.1116 31.482 46.1116C31.482 46.1116 32.0645 44.2094 33.9821 41.7978C35.8992 39.3862 33.6274 36.6621 33.6274 36.6621L28.9728 38.1245L24.3186 39.5861C24.3186 39.5861 24.0128 43.1204 26.9647 44.0025Z" fill="white"/>
<path d="M26.9647 44.0025C29.9162 44.8845 31.482 46.1116 31.482 46.1116C31.482 46.1116 32.0645 44.2094 33.9821 41.7978C35.8992 39.3862 33.6274 36.6621 33.6274 36.6621L28.9728 38.1245L24.3186 39.5861C24.3186 39.5861 24.0128 43.1204 26.9647 44.0025Z" stroke="#019BE3" stroke-width="1.17509" stroke-miterlimit="10" stroke-linecap="round" stroke-linejoin="round"/>
<path d="M28.8453 37.7314C28.8453 37.7314 32.1435 39.1171 30.848 44.1067C30.848 44.1067 26.9728 40.8277 28.8453 37.7314Z" fill="white"/>
<path d="M28.8453 37.7314C28.8453 37.7314 32.1435 39.1171 30.848 44.1067C30.848 44.1067 26.9728 40.8277 28.8453 37.7314Z" stroke="#019BE3" stroke-width="1.17509" stroke-miterlimit="10" stroke-linecap="round" stroke-linejoin="round"/>
<path d="M14.6351 40.8239C16.3007 43.4158 16.6896 45.3668 16.6896 45.3668C16.6896 45.3668 18.3697 44.3028 21.3955 43.7212C24.4208 43.1404 24.4713 39.5935 24.4713 39.5935L19.9878 37.6714L15.5038 35.75C15.5038 35.75 12.9695 38.2321 14.6351 40.8239Z" fill="white"/>
<path d="M14.6351 40.8239C16.3007 43.4158 16.6896 45.3668 16.6896 45.3668C16.6896 45.3668 18.3697 44.3028 21.3955 43.7212C24.4208 43.1404 24.4713 39.5935 24.4713 39.5935L19.9878 37.6714L15.5038 35.75C15.5038 35.75 12.9695 38.2321 14.6351 40.8239Z" stroke="#019BE3" stroke-width="1.17509" stroke-miterlimit="10" stroke-linecap="round" stroke-linejoin="round"/>
<path d="M20.1487 37.291C20.1487 37.291 21.7479 40.4908 17.5151 43.4343C17.5151 43.4343 16.7107 38.4209 20.1487 37.291Z" fill="white"/>
<path d="M20.1487 37.291C20.1487 37.291 21.7479 40.4908 17.5151 43.4343C17.5151 43.4343 16.7107 38.4209 20.1487 37.291Z" stroke="#019BE3" stroke-width="1.17509" stroke-miterlimit="10" stroke-linecap="round" stroke-linejoin="round"/>
<path d="M7.35164 30.3835C6.9269 33.4351 5.95142 35.1683 5.95142 35.1683C5.95142 35.1683 7.9195 35.4558 10.5944 36.9853C13.2684 38.5145 15.617 35.8559 15.617 35.8559L13.4666 31.4775L11.3153 27.0986C11.3153 27.0986 7.77597 27.3319 7.35164 30.3835Z" fill="white"/>
<path d="M7.35164 30.3835C6.9269 33.4351 5.95142 35.1683 5.95142 35.1683C5.95142 35.1683 7.9195 35.4558 10.5944 36.9853C13.2684 38.5145 15.617 35.8559 15.617 35.8559L13.4666 31.4775L11.3153 27.0986C11.3153 27.0986 7.77597 27.3319 7.35164 30.3835Z" stroke="#019BE3" stroke-width="1.17509" stroke-miterlimit="10" stroke-linecap="round" stroke-linejoin="round"/>
<path d="M13.8343 31.2916C13.8343 31.2916 12.9644 34.7617 7.83496 34.2385C7.83496 34.2385 10.4894 29.9102 13.8343 31.2916Z" fill="white"/>
<path d="M13.8343 31.2916C13.8343 31.2916 12.9644 34.7617 7.83496 34.2385C7.83496 34.2385 10.4894 29.9102 13.8343 31.2916Z" stroke="#019BE3" stroke-width="1.17509" stroke-miterlimit="10" stroke-linecap="round" stroke-linejoin="round"/>
<path d="M8.62447 17.7169C6.31426 19.7559 4.44507 20.4356 4.44507 20.4356C4.44507 20.4356 5.75142 21.9356 6.78448 24.8383C7.81796 27.7405 11.331 27.2528 11.331 27.2528L12.5514 22.5293L13.7714 17.8058C13.7714 17.8058 10.9334 15.6775 8.62447 17.7169Z" fill="white"/>
<path d="M8.62447 17.7169C6.31426 19.7559 4.44507 20.4356 4.44507 20.4356C4.44507 20.4356 5.75142 21.9356 6.78448 24.8383C7.81796 27.7405 11.331 27.2528 11.331 27.2528L12.5514 22.5293L13.7714 17.8058C13.7714 17.8058 10.9334 15.6775 8.62447 17.7169Z" stroke="#019BE3" stroke-width="1.17509" stroke-miterlimit="10" stroke-linecap="round" stroke-linejoin="round"/>
<path d="M12.9525 22.6288C12.9525 22.6288 10.0323 24.6953 6.48169 20.9582C6.48169 20.9582 11.3145 19.4019 12.9525 22.6288Z" fill="white"/>
<path d="M12.9525 22.6288C12.9525 22.6288 10.0323 24.6953 6.48169 20.9582C6.48169 20.9582 11.3145 19.4019 12.9525 22.6288Z" stroke="#019BE3" stroke-width="1.17509" stroke-miterlimit="10" stroke-linecap="round" stroke-linejoin="round"/>
<path d="M17.8395 8.93237C14.7595 8.97576 12.8974 8.27441 12.8974 8.27441C12.8974 8.27441 12.912 10.2633 11.8059 13.1385C10.6994 16.0136 13.683 17.9325 13.683 17.9325L17.6851 15.1424L21.6872 12.3528C21.6872 12.3528 20.9199 8.8894 17.8395 8.93237Z" fill="white"/>
<path d="M17.8395 8.93237C14.7595 8.97576 12.8974 8.27441 12.8974 8.27441C12.8974 8.27441 12.912 10.2633 11.8059 13.1385C10.6994 16.0136 13.683 17.9325 13.683 17.9325L17.6851 15.1424L21.6872 12.3528C21.6872 12.3528 20.9199 8.8894 17.8395 8.93237Z" stroke="#019BE3" stroke-width="1.17509" stroke-miterlimit="10" stroke-linecap="round" stroke-linejoin="round"/>
<path d="M17.9234 15.4791C17.9234 15.4791 14.3615 15.1457 14.1016 9.99707C14.1016 9.99707 18.7821 11.9639 17.9234 15.4791Z" fill="white"/>
<path d="M17.9234 15.4791C17.9234 15.4791 14.3615 15.1457 14.1016 9.99707C14.1016 9.99707 18.7821 11.9639 17.9234 15.4791Z" stroke="#019BE3" stroke-width="1.17509" stroke-miterlimit="10" stroke-linecap="round" stroke-linejoin="round"/>
<path d="M40.0213 25.2778C40.0213 33.4046 33.4328 39.9923 25.306 39.9923C17.1792 39.9923 10.5916 33.4046 10.5916 25.2778C10.5916 17.1514 17.1792 10.5625 25.306 10.5625C33.4328 10.5625 40.0213 17.1514 40.0213 25.2778Z" fill="white"/>
<path d="M40.0213 25.2778C40.0213 33.4046 33.4328 39.9923 25.306 39.9923C17.1792 39.9923 10.5916 33.4046 10.5916 25.2778C10.5916 17.1514 17.1792 10.5625 25.306 10.5625C33.4328 10.5625 40.0213 17.1514 40.0213 25.2778Z" stroke="#019BE3" stroke-width="1.17509" stroke-miterlimit="10" stroke-linecap="round" stroke-linejoin="round"/>
<path d="M31.9996 20.2462H18.6131C18.3766 20.2462 18.1851 20.0543 18.1851 19.8181C18.1851 19.5816 18.3766 19.3896 18.6131 19.3896H31.9996C32.2361 19.3896 32.4276 19.5816 32.4276 19.8181C32.4276 20.0543 32.2361 20.2462 31.9996 20.2462Z" fill="#019BE3"/>
<path d="M22.3617 27.9567C22.1251 27.9567 21.9336 27.7647 21.9336 27.5281C21.9336 25.4616 23.6146 23.7806 25.6812 23.7806H27.8232V19.8181C27.8232 19.5816 28.0147 19.3896 28.2513 19.3896C28.4879 19.3896 28.6794 19.5816 28.6794 19.8181V24.2087C28.6794 24.4456 28.4879 24.6371 28.2513 24.6371H25.6812C24.0869 24.6371 22.7898 25.9339 22.7898 27.5281C22.7898 27.7647 22.5982 27.9567 22.3617 27.9567Z" fill="#019BE3"/>
<path d="M22.0599 34.4663C21.9339 34.4663 21.8096 34.4121 21.7244 34.3057L21.6435 34.2043C20.7994 33.1487 20.4164 31.8269 20.5662 30.4826C20.716 29.1391 21.3802 27.9337 22.4362 27.0897C23.4918 26.2448 24.8136 25.8601 26.1575 26.012C27.5014 26.1617 28.7064 26.8256 29.5509 27.8824L29.7941 28.1866C29.9422 28.3706 29.9122 28.6405 29.7273 28.7886C29.5429 28.9359 29.2734 28.9067 29.1253 28.7215L28.882 28.4165C28.1803 27.5394 27.1793 26.9875 26.0628 26.8631C24.948 26.7396 23.8486 27.0567 22.9711 27.7589C22.0937 28.4603 21.5421 29.4616 21.4182 30.5773C21.2934 31.6938 21.6114 32.7924 22.3136 33.6698L22.3945 33.7716C22.5418 33.956 22.5113 34.226 22.3273 34.3728C22.2481 34.4367 22.1534 34.4663 22.0599 34.4663Z" fill="#019BE3"/>
<path d="M26.1562 16.9393C26.1562 17.4087 25.7761 17.7892 25.3068 17.7892C24.8378 17.7892 24.4573 17.4087 24.4573 16.9393C24.4573 16.4704 24.8378 16.0898 25.3068 16.0898C25.7761 16.0898 26.1562 16.4704 26.1562 16.9393Z" fill="#019BE3"/>
</svg>
